<svg xmlns="http://www.w3.org/2000/svg" xmlns:xlink="http://www.w3.org/1999/xlink" xmlns:inkscape="http://www.inkscape.org/namespaces/inkscape" version="1.1" width="187" height="130" viewBox="0 0 187 130">
<defs>
<path id="font_1_80" d="M.7659912 .3387909C.7659912 .539978 .6069946 .70410159 .41299439 .70410159 .21598816 .70410159 .05899048 .53897097 .05899048 .3387909 .05899048 .13461304 .22200012-.021484375 .4119873-.021484375 .60598757-.021484375 .7659912 .13661194 .7659912 .3387909M.6619873 .35380555C.6619873 .09957886 .5179901 .011505127 .41299439 .011505127 .3039856 .011505127 .16299439 .10258484 .16299439 .35380555 .16299439 .5930176 .30899049 .6730957 .4119873 .6730957 .519989 .6730957 .6619873 .5890198 .6619873 .35380555Z"/>
<path id="font_1_64" d="M.2939911 .18304444V.24804688H.011993408V.18304444H.2939911Z"/>
<path id="font_1_76" d="M.7509918 .6496124V.6826172C.70599368 .6796112 .6589966 .6796112 .6329956 .6796112 .6069946 .6796112 .55999758 .6796112 .5149994 .6826172V.6496124C.6159973 .6496124 .6159973 .6016388 .6159973 .5756531V.14892578L.24299622 .66760256C.23199463 .6816101 .23098755 .6826172 .21099854 .6826172H.04399109V.6496124H.07199097C.08999634 .6496124 .09799194 .6496124 .117996219 .6476135 .14399719 .64460757 .14498902 .6436157 .14498902 .62461856V.10694885C.14498902 .080963138 .14498902 .032989503 .04399109 .032989503V0C.08898926 .0029907227 .13598633 .0029907227 .1619873 .0029907227 .18798828 .0029907227 .23498535 .0029907227 .27999879 0V.032989503C.1789856 .032989503 .1789856 .080963138 .1789856 .10694885V.6164093L.6119995 .01499939C.62098696 .0029907227 .6230011 0 .6329956 0 .6499939 0 .6499939 .009994507 .6499939 .027999878V.5754547C.6499939 .6014252 .6499939 .64941409 .7509918 .64941409V.6496124Z"/>
<path id="font_1_62" d="M.7509918 0V.032989503H.72898867C.6519928 .032989503 .6499939 .04399109 .6499939 .08097839V.60165408C.6499939 .63861086 .6519928 .6496124 .72898867 .6496124H.7509918V.6826172L.60398867 .6796112 .45700074 .6826172V.6496124H.47898866C.55599978 .6496124 .55799868 .63861086 .55799868 .60165408V.3718567H.23699951V.60165408C.23699951 .63861086 .23899842 .6496124 .31599427 .6496124H.33799745V.6826172L.19099427 .6796112 .04399109 .6826172V.6496124H.06599426C.14299011 .6496124 .14498902 .63861086 .14498902 .60165408V.08097839C.14498902 .04399109 .14299011 .032989503 .06599426 .032989503H.04399109V0L.19099427 .0029907227 .33799745 0V.032989503H.31599427C.23899842 .032989503 .23699951 .04399109 .23699951 .08097839V.3388672H.55799868V.08097839C.55799868 .04399109 .55599978 .032989503 .47898866 .032989503H.45700074V0L.60398867 .0029907227 .7509918 0Z"/>
<path id="font_1_89" d="M.7659912 .25042726C.7659912 .2734375 .74398806 .2734375 .7299957 .2734375H.43598939V.5676117C.43598939 .5815735 .43598939 .6035156 .41299439 .6035156 .3899994 .6035156 .3899994 .5815735 .3899994 .5676117V.2734375H.09498596C.08099365 .2734375 .05899048 .2734375 .05899048 .25042726 .05899048 .22743225 .08099365 .22743225 .09498596 .22743225H.3899994V-.0675354C.3899994-.08152771 .3899994-.103515628 .41299439-.103515628 .43598939-.103515628 .43598939-.08152771 .43598939-.0675354V.22743225H.7299957C.74398806 .22743225 .7659912 .22743225 .7659912 .25042726Z"/>
<path id="font_1_106" d="M.48599244 .17131043C.48599244 .25431825 .41999818 .330307 .31799317 .35231019 .39698792 .38031007 .45599366 .44831849 .45599366 .5283203 .45599366 .6080475 .3659973 .66503909 .2619934 .66503909 .15499878 .66503909 .07398987 .6070404 .07398987 .53105166 .07398987 .49404908 .09899902 .4780426 .125 .4780426 .1559906 .4780426 .17599488 .5000458 .17599488 .52905276 .17599488 .56604006 .14399719 .5800476 .12199402 .5810547 .1639862 .6360321 .24099732 .6390381 .25898744 .6390381 .2849884 .63931277 .36099244 .63131716 .36099244 .5283203 .36099244 .458313 .33198548 .41630555 .31799317 .40031434 .28799439 .36930848 .2649994 .36730958 .20399475 .36331178 .18499756 .36231996 .1769867 .36131288 .1769867 .34831239 .1769867 .3343048 .18598938 .3343048 .20298767 .3343048H.25299073C.33198548 .3343048 .38198854 .27630616 .38198854 .17131043 .38198854 .045440675 .31098939 .008514404 .2579956 .008514404 .20298767 .008514404 .12799073 .0284729 .09298706 .08137512 .1289978 .08137512 .1539917 .10437012 .1539917 .13737488 .1539917 .16937256 .1309967 .19238281 .09899902 .19238281 .07199097 .19238281 .04399109 .17536927 .04399109 .13537598 .04399109 .04045105 .1459961-.021484375 .2599945-.021484375 .3929901-.021484375 .48599244 .070388797 .48599244 .17037964V.17131043Z"/>
<path id="font_1_107" d="M.47698976 .17900086H.44599916C.44299317 .15899658 .43499757 .10899353 .4229889 .08999634 .4169922 .08198547 .34098817 .08198547 .32499696 .08198547H.14698792L.28199769 .20399475C.2979889 .2190094 .33999635 .2519989 .35598756 .26600648 .41799928 .3230133 .47698976 .37802125 .47698976 .46902467 .47698976 .58802798 .3769989 .66503909 .2519989 .66503909 .13198853 .6651764 .052993776 .574173 .052993776 .48516847 .052993776 .4361725 .09199524 .4291687 .10598755 .4291687 .1269989 .4291687 .1579895 .4441681 .1579895 .48217774 .1579895 .5341797 .10798645 .5341797 .09599304 .5341797 .125 .6070709 .19198609 .6320343 .24099732 .6320343 .33399964 .6320343 .38198854 .55314639 .38198854 .46917726 .38198854 .36517335 .30899049 .2891693 .19099427 .16816712L.06498718 .03817749C.052993776 .026992798 .052993776 .024993897 .052993776 0H.44799806L.47698976 .17900086Z"/>
<path id="font_1_42" d="M.70700076 .23370362C.70700076 .24371338 .70700076 .25273133 .69099429 .25273133 .6799927 .25273133 .6769867 .24772644 .6759949 .23771668 .66799929 .08357239 .5439911 .011505127 .43798829 .011505127 .35299684 .011505127 .16299439 .06355286 .16299439 .34179688 .16299439 .6110382 .34298707 .6710968 .43798829 .6710968 .5319977 .6710968 .647995 .6040344 .673996 .43188478 .6749878 .4238739 .6759949 .41687013 .6899872 .41687013 .70700076 .41687013 .70700076 .4238739 .70700076 .4429016V.6781006C.70700076 .6940918 .70700076 .70410159 .69400027 .70410159 .68699648 .70410159 .6859894 .7030945 .6769867 .690094L.6259918 .6160431C.58999636 .65509036 .5239868 .70410159 .42799378 .70410159 .22698975 .70410159 .05899048 .542984 .05899048 .34179688 .05899048 .13961792 .22599793-.021484375 .42900086-.021484375 .5970001-.021484375 .70700076 .11160278 .70700076 .23370362Z"/>
<path id="font_1_97" d="M.5299988 .18458557C.5299988 .2716217 .47299195 .36065675 .37098695 .38467408L.23298645 .416687C.16899109 .4316864 .12199402 .4827118 .12199402 .5437927 .12199402 .61094668 .17999268 .6740875 .2669983 .6740875 .43998719 .6740875 .46299745 .51171877 .46798707 .4737091 .46998597 .46270753 .47099305 .45570375 .48399354 .45570375 .5 .45570375 .5 .46270753 .5 .4817047V.6781006C.5 .6940918 .5 .70410159 .4869995 .70410159 .47898866 .70410159 .47698976 .7010956 .46998597 .690094L.43499757 .6340027C.3849945 .6890869 .32099916 .70410159 .2659912 .70410159 .14698792 .70410159 .05899048 .61395266 .05899048 .51171877 .05899048 .43569947 .101989749 .39367677 .12098694 .3746643 .15699768 .33865357 .18998719 .3306427 .2979889 .30563355 .38398744 .28562928 .39898683 .2826233 .43199159 .24760437 .44198609 .23660279 .46699525 .20259094 .46699525 .15356446 .46699525 .08453369 .4139862 .011505127 .31999208 .011505127 .20999146 .011505127 .09599304 .06452942 .08999634 .20359802 .08898926 .21960449 .08898926 .22660828 .07499695 .22660828 .05899048 .22660828 .05899048 .21859741 .05899048 .19958496V.004501343C.05899048-.011489868 .05899048-.021484375 .07199097-.021484375 .07998657-.021484375 .08099365-.019485474 .08799744-.009490967 .09199524-.0034942628 .09599304 .005508423 .12399292 .047531129 .18699646-.0084991459 .26098634-.021484375 .32099916-.021484375 .44599916-.021484375 .5299988 .07752991 .5299988 .18458557Z"/>
<path id="font_1_71" d="M.61898806 .25985719H.58799746C.57598879 .1559143 .5609894 .032989503 .37799073 .032989503H.2849884C.23899842 .032989503 .23699951 .039993287 .23699951 .07395935V.6006317C.23699951 .6356201 .23699951 .6496124 .33099366 .6496124H.36299134V.6826172C.31799317 .6796112 .24499512 .6796112 .19799805 .6796112L.04399109 .6826172V.6496124H.06599426C.14299011 .6496124 .14498902 .63861086 .14498902 .6016388V.080963138C.14498902 .04399109 .14299011 .032989503 .06599426 .032989503H.04399109V0H.58999636L.61898806 .25985719Z"/>
<path id="font_1_54" d="M.647995 .45303346 .61898806 .6796875H.04399109V.64668276H.06599426C.14299011 .64668276 .14498902 .6356964 .14498902 .59877017V.08102417C.14498902 .044006349 .14299011 .032989503 .06599426 .032989503H.04399109V0L.19799805 .0029907227C.24499512 .0029907227 .31799317 .0029907227 .36299134 0V.032989503H.33099366C.23699951 .032989503 .23699951 .04699707 .23699951 .08203125V.32421876H.32998658C.42799378 .32421876 .43998719 .29318238 .43998719 .2071228H.47099305V.47399903H.43998719C.43998719 .38916017 .42799378 .35720826 .32998658 .35720826H.23699951V.60575869C.23699951 .6396942 .23899842 .64668276 .2849884 .64668276H.41799928C.58099368 .64668276 .59999087 .58380129 .61698916 .45303346H.647995Z"/>
</defs>
<path transform="matrix(1.00005,0,0,-1.00003,102.250308,206.9238)" stroke-width="1.59404" stroke-linecap="butt" stroke-miterlimit="10" stroke-linejoin="miter" fill="none" stroke="#000000" d="M24.62527 113.59705C30.12996 112.50287 37.44707 110.28076 42.63248 108.133"/>
<path transform="matrix(1.00005,0,0,-1.00003,102.250308,206.9238)" stroke-width=".3985" stroke-linecap="butt" stroke-miterlimit="10" stroke-linejoin="miter" fill="none" stroke="#000000" d="M50.96637 181.47628 63.24092 188.56296 69.47597 184.96314"/>
<use data-text="O" xlink:href="#font_1_80" transform="matrix(7.970498,0,0,-7.9703395,172.81784,25.442353)"/>
<use data-text="-" xlink:href="#font_1_64" transform="matrix(7.970498,0,0,-7.9703395,179.40116,22.629258)"/>
<path transform="matrix(1.00005,0,0,-1.00003,102.250308,206.9238)" stroke-width=".3985" stroke-linecap="butt" stroke-miterlimit="10" stroke-linejoin="miter" fill="none" stroke="#000000" d="M63.24092 188.56296V197.75498"/>
<use data-text="O" xlink:href="#font_1_80" transform="matrix(7.970498,0,0,-7.9703395,162.2023,6.9027864)"/>
<path transform="matrix(1.00005,0,0,-1.00003,102.250308,206.9238)" stroke-width=".3985" stroke-linecap="butt" stroke-miterlimit="10" stroke-linejoin="miter" fill="none" stroke="#000000" d="M65.13383 189.65589V197.85161"/>
<path transform="matrix(1.00005,0,0,-1.00003,102.250308,206.9238)" stroke-width=".3985" stroke-linecap="butt" stroke-miterlimit="10" stroke-linejoin="miter" fill="none" stroke="#000000" d="M50.96637 181.47628 45.59412 184.57798"/>
<use data-text="N" xlink:href="#font_1_76" transform="matrix(7.970498,0,0,-7.9703395,131.05875,20.471192)"/>
<use data-text="H" xlink:href="#font_1_62" transform="matrix(7.970498,0,0,-7.9703395,137.40326,20.471192)"/>
<use data-text="+" xlink:href="#font_1_89" transform="matrix(7.970498,0,0,-7.9703395,143.74837,16.896088)"/>
<use data-text="3" xlink:href="#font_1_106" transform="matrix(7.970498,0,0,-7.9703395,143.74837,24.460312)"/>
<path transform="matrix(1.00005,0,0,-1.00003,102.250308,206.9238)" stroke-width=".3985" stroke-linecap="butt" stroke-miterlimit="10" stroke-linejoin="miter" fill="none" stroke="#000000" d="M50.96637 181.47628V167.30286L63.24092 160.21617 69.47597 163.816"/>
<use data-text="N" xlink:href="#font_1_76" transform="matrix(7.970498,0,0,-7.9703395,169.05963,41.060808)"/>
<use data-text="H" xlink:href="#font_1_62" transform="matrix(7.970498,0,0,-7.9703395,175.40415,41.060808)"/>
<use data-text="2" xlink:href="#font_1_107" transform="matrix(7.970498,0,0,-7.9703395,181.74927,43.614885)"/>
<path transform="matrix(1.00005,0,0,-1.00003,102.250308,206.9238)" stroke-width=".3985" stroke-linecap="butt" stroke-miterlimit="10" stroke-linejoin="miter" fill="none" stroke="#000000" d="M63.24092 160.21617V152.02042"/>
<path transform="matrix(1.00005,0,0,-1.00003,102.250308,206.9238)" stroke-width=".3985" stroke-linecap="butt" stroke-miterlimit="10" stroke-linejoin="miter" fill="none" stroke="#000000" d="M61.348 159.12325V152.11705"/>
<use data-text="O" xlink:href="#font_1_80" transform="matrix(7.970498,0,0,-7.9703395,162.2023,63.598497)"/>
<use data-text="C" xlink:href="#font_1_42" transform="matrix(7.970498,0,0,-7.9703395,.5892334,128.72545)"/>
<use data-text="S" xlink:href="#font_1_97" transform="matrix(7.970498,0,0,-7.9703395,29.03064,103.584697)"/>
<use data-text="L" xlink:href="#font_1_71" transform="matrix(7.970498,0,0,-7.9703395,62.575326,87.57821)"/>
<use data-text="F" xlink:href="#font_1_54" transform="matrix(7.970498,0,0,-7.9703395,86.98654,82.69006)"/>
</svg>
